<svg width="64" height="64" viewBox="0 0 64 64" fill="none" xmlns="http://www.w3.org/2000/svg">
<circle cx="31.7249" cy="31.7249" r="31.7249" fill="white"/>
<path d="M34.6588 47.777L32.716 49.7198C31.8934 50.5424 30.5631 50.5424 29.7493 49.7198L12.7366 32.7159C11.914 31.8932 11.914 30.563 12.7366 29.7491L29.7493 12.7365C30.5719 11.9138 31.9021 11.9138 32.716 12.7365L34.6588 14.6793C35.4902 15.5107 35.4727 16.8671 34.6238 17.681L24.0784 27.7276H49.2298C50.3938 27.7276 51.3302 28.664 51.3302 29.8279V32.6283C51.3302 33.7923 50.3938 34.7287 49.2298 34.7287H24.0784L34.6238 44.7753C35.4814 45.5891 35.4989 46.9456 34.6588 47.777Z" fill="#BA5E5E"/>
</svg>
