<svg width="64" height="64" viewBox="0 0 64 64" fill="none" xmlns="http://www.w3.org/2000/svg">
<circle cx="32.2752" cy="31.7249" r="31.7249" fill="white"/>
<path d="M29.3412 14.6793L31.284 12.7365C32.1066 11.9139 33.4369 11.9139 34.2507 12.7365L51.2634 29.7404C52.086 30.5631 52.086 31.8933 51.2634 32.7071L34.2507 49.7198C33.4281 50.5424 32.0979 50.5424 31.284 49.7198L29.3412 47.777C28.5098 46.9456 28.5273 45.5892 29.3762 44.7753L39.9216 34.7287L14.7702 34.7287C13.6062 34.7287 12.6698 33.7923 12.6698 32.6284V29.8279C12.6698 28.664 13.6062 27.7276 14.7702 27.7276L39.9216 27.7276L29.3762 17.681C28.5186 16.8672 28.5011 15.5107 29.3412 14.6793Z" fill="#BA5E5E"/>
</svg>
