<svg width="41" height="37" viewBox="0 0 41 37" fill="none" xmlns="http://www.w3.org/2000/svg">
<g clip-path="url(#clip0)">
<path d="M15.306 5.05737L8.97302 11.3889H1.70833C0.764479 11.3889 0 12.1534 0 13.0972V23.3472C0 24.2904 0.764479 25.0555 1.70833 25.0555H8.97302L15.306 31.3871C16.3758 32.4569 18.2222 31.7052 18.2222 30.1791V6.2653C18.2222 4.73777 16.3744 3.98895 15.306 5.05737ZM31.9138 1.42147C31.1187 0.899713 30.0503 1.11966 29.5285 1.91617C29.0061 2.71126 29.2282 3.77968 30.0232 4.30143C34.7404 7.39707 37.5556 12.6011 37.5556 18.2229C37.5556 23.8448 34.7404 29.0488 30.0232 32.1444C29.2282 32.6655 29.0061 33.7346 29.5285 34.529C30.0297 35.2913 31.0895 35.5654 31.9138 35.0237C37.6026 31.2895 41 25.0079 41 18.2222C41 11.4366 37.6026 5.1556 31.9138 1.42147ZM34.1667 18.2222C34.1667 13.7001 31.8846 9.54246 28.0615 7.10096C27.265 6.59273 26.2087 6.82905 25.704 7.63197C25.1993 8.43489 25.4349 9.49761 26.2315 10.0066C29.0609 11.8138 30.75 14.8846 30.75 18.2222C30.75 21.5599 29.0609 24.6306 26.2315 26.4379C25.4349 26.9461 25.1993 28.0088 25.704 28.8125C26.1674 29.5499 27.2073 29.8901 28.0615 29.3435C31.8846 26.902 34.1667 22.745 34.1667 18.2222ZM24.0754 12.7506C23.2511 12.3 22.2112 12.5968 21.7542 13.4232C21.2994 14.2496 21.6005 15.2882 22.4269 15.7444C23.3458 16.2491 23.9167 17.1994 23.9167 18.2222C23.9167 19.2458 23.3458 20.1953 22.4276 20.7C21.6012 21.1563 21.3001 22.1948 21.7549 23.0212C22.2126 23.8512 23.2533 24.1459 24.0761 23.6939C26.0855 22.587 27.334 20.4907 27.334 18.2215C27.334 15.9523 26.0855 13.8567 24.0754 12.7506Z" fill="white"/>
</g>
<defs>
<clipPath id="clip0">
<rect width="41" height="36.4444" fill="white"/>
</clipPath>
</defs>
</svg>
